HIERARCHY
ROOT SpineBase
{
  OFFSET 0.000000 0.000000 0.000000
  CHANNELS 6 Xposition Yposition Zposition Zrotation Xrotation Yrotation
  JOINT SpineMid
  {
    OFFSET 0.000000 26.464760 0.000000
    CHANNELS 3 Zrotation Xrotation Yrotation
    JOINT SpineShoulder
    {
      OFFSET -0.038827 19.720758 -0.563730
      CHANNELS 3 Zrotation Xrotation Yrotation
      JOINT Neck
      {
        OFFSET -0.015577 6.559381 -0.458283
        CHANNELS 3 Zrotation Xrotation Yrotation
        JOINT Head
        {
          OFFSET 1.384223 12.358814 0.029836
          CHANNELS 3 Zrotation Xrotation Yrotation
          End Site
          {
            OFFSET 0 0 0
          }
        }
      }
      JOINT ShoulderLeft
      {
        OFFSET -12.719015 -2.543317 -4.389728
        CHANNELS 3 Zrotation Xrotation Yrotation
        JOINT ElbowLeft
        {
          OFFSET -6.333756 -23.399841 -1.981751
          CHANNELS 3 Zrotation Xrotation Yrotation
          JOINT WristLeft
          {
            OFFSET -0.910262 -16.014537 -11.870486
            CHANNELS 3 Zrotation Xrotation Yrotation
            JOINT HandLeft
            {
              OFFSET -1.135070 -5.908013 -5.215747
              CHANNELS 3 Zrotation Xrotation Yrotation
              JOINT HandTipLeft
              {
                OFFSET -0.064647 -4.945349 -3.894605
                CHANNELS 3 Zrotation Xrotation Yrotation
                End Site
                {
                  OFFSET 0 0 0
                }
              }
              JOINT ThumbLeft
              {
                OFFSET -1.888920 -2.914472 -2.774855
                CHANNELS 3 Zrotation Xrotation Yrotation
                End Site
                {
                  OFFSET 0 0 0
                }
              }
            }
          }
        }
      }
      JOINT ShoulderRight
      {
        OFFSET 12.597007 -0.999850 2.266592
        CHANNELS 3 Zrotation Xrotation Yrotation
        JOINT ElbowRight
        {
          OFFSET 4.545050 -23.556879 5.722964
          CHANNELS 3 Zrotation Xrotation Yrotation
          JOINT WristRight
          {
            OFFSET 8.605109 -18.247979 -4.466774
            CHANNELS 3 Zrotation Xrotation Yrotation
            JOINT HandRight
            {
              OFFSET 4.124741 -6.691338 -4.781607
              CHANNELS 3 Zrotation Xrotation Yrotation
              JOINT HandTipRight
              {
                OFFSET 2.132026 -5.777364 -1.538175
                CHANNELS 3 Zrotation Xrotation Yrotation
                End Site
                {
                  OFFSET 0 0 0
                }
              }
              JOINT ThumbRight
              {
                OFFSET 0.545982 -3.870459 -1.550549
                CHANNELS 3 Zrotation Xrotation Yrotation
                End Site
                {
                  OFFSET 0 0 0
                }
              }
            }
          }
        }
      }
    }
  }
  JOINT HipLeft
  {
    OFFSET -5.773718 0.940168 -4.029874
    CHANNELS 3 Zrotation Xrotation Yrotation
    JOINT KneeLeft
    {
      OFFSET -3.443123 -30.933591 -1.203241
      CHANNELS 3 Zrotation Xrotation Yrotation
      JOINT AnkleLeft
      {
        OFFSET 1.907191 -33.208560 8.393013
        CHANNELS 3 Zrotation Xrotation Yrotation
        JOINT FootLeft
        {
          OFFSET 3.845075 -5.166689 -2.572409
          CHANNELS 3 Zrotation Xrotation Yrotation
          End Site
          {
            OFFSET 0 0 0
          }
        }
      }
    }
  }
  JOINT HipRight
  {
    OFFSET 5.503972 0.739836 -2.006751
    CHANNELS 3 Zrotation Xrotation Yrotation
    JOINT KneeRight
    {
      OFFSET -0.421607 -26.996666 0.935416
      CHANNELS 3 Zrotation Xrotation Yrotation
      JOINT AnkleRight
      {
        OFFSET -4.044985 -38.157503 6.861623
        CHANNELS 3 Zrotation Xrotation Yrotation
        JOINT FootRight
        {
          OFFSET -5.019671 -6.671958 -3.274651
          CHANNELS 3 Zrotation Xrotation Yrotation
          End Site
          {
            OFFSET 0 0 0
          }
        }
      }
    }
  }
}
MOTION
Frames: 6
Frame Time: 0.033333
16.476469 71.086290 362.979545 -0.000000 0.000000 -10.170210 0.000000 0.000000 10.170210 -0.000000 0.000000 0.000000 -0.000000 0.000000 0.000000 0.000000 0.000000 0.000000 -0.000000 0.000000 0.000000 -0.000000 0.000000 0.000000 -0.000000 0.000000 0.000000 -0.000000 0.000000 0.000000 0.000000 0.000000 0.000000 0.000000 0.000000 0.000000 -0.000000 0.000000 0.000000 -0.000000 0.000000 0.000000 -0.000000 0.000000 0.000000 -0.000000 0.000000 0.000000 0.000000 0.000000 0.000000 0.000000 0.000000 0.000000 0.000000 0.000000 10.170210 -0.000000 0.000000 0.000000 -0.000000 0.000000 0.000000 0.000000 0.000000 0.000000 0.000000 0.000000 10.170210 -0.000000 0.000000 0.000000 -0.000000 0.000000 0.000000 0.000000 0.000000 0.000000
16.917455 71.154888 363.130040 0.611334 0.127038 -10.867470 -0.576423 -0.240010 10.865585 -0.000000 0.000000 0.000000 -0.000000 0.000000 0.000000 0.000000 0.000000 0.000000 0.488277 2.706631 -0.784965 1.137632 3.363880 -0.771502 2.607907 3.290851 -3.762464 0.030081 -4.449845 2.343551 0.000000 0.000000 0.000000 0.000000 0.000000 0.000000 2.213898 2.383914 0.953107 2.583715 5.458183 1.311183 -1.487942 -1.067124 -0.809625 0.155845 2.561728 0.666279 0.000000 0.000000 0.000000 0.000000 0.000000 0.000000 -0.576423 -0.240010 10.865585 -0.000000 0.000000 0.000000 -0.262910 15.771246 11.188482 0.000000 0.000000 0.000000 -1.712072 -0.595785 10.818457 1.182225 0.136191 0.037440 14.426056 19.365541 -24.217612 0.000000 0.000000 0.000000
17.276963 71.216037 363.262729 1.117795 0.254430 -11.520703 -0.329270 -0.011748 11.540209 0.023497 0.128868 0.033956 -0.816701 -0.436726 -0.061196 0.000000 0.000000 0.000000 0.203203 4.865073 -1.620479 2.220431 5.782742 -1.472181 4.719436 4.529393 -6.287543 0.517362 -6.922261 3.957503 0.000000 0.000000 0.000000 0.000000 0.000000 0.000000 3.244277 4.027073 1.664487 4.802910 10.483410 2.284869 -2.375197 -1.161107 -1.324192 0.138108 4.551224 0.965341 0.000000 0.000000 0.000000 0.000000 0.000000 0.000000 -2.165938 -0.853825 11.563259 0.142538 0.693427 -0.286537 -1.121175 24.620941 18.766198 0.000000 0.000000 0.000000 -3.057127 -1.127070 11.416734 2.102257 0.242635 0.064632 29.672021 27.765996 -44.948404 0.000000 0.000000 0.000000
17.554993 71.269735 363.377612 1.518114 0.381986 -12.131647 -0.420925 -0.011395 12.156612 0.040716 0.173130 0.047478 -1.145714 -0.630816 -0.087824 0.000000 0.000000 0.000000 0.423965 7.059129 -2.388393 3.205780 7.216420 -2.055640 6.337534 4.607338 -7.906621 1.171844 -8.125862 5.004921 0.000000 0.000000 0.000000 0.000000 0.000000 0.000000 4.388886 5.577683 2.226165 6.439662 14.617171 2.957226 -2.649885 -0.259899 -1.425512 -0.036582 5.553408 0.828028 0.000000 0.000000 0.000000 0.000000 0.000000 0.000000 -2.912436 -1.224387 12.177149 0.126024 0.994680 -0.396599 -2.363542 29.385573 23.262018 0.000000 0.000000 0.000000 -4.063967 -1.587213 11.973572 2.393626 1.289683 -0.084063 38.904211 29.188614 -55.990009 0.000000 0.000000 0.000000
17.751544 71.315984 363.474690 1.811374 0.509531 -12.701909 -0.463315 -0.004240 12.730312 0.061553 0.203799 0.058942 -0.999134 -1.655093 -0.008386 0.000000 0.000000 0.000000 0.690199 8.965279 -3.084960 4.080172 7.741974 -2.509166 7.623940 4.127802 -8.970024 1.824269 -8.623581 5.652912 0.000000 0.000000 0.000000 0.000000 0.000000 0.000000 5.214416 6.786304 2.636466 7.407646 17.673375 3.436072 -2.502281 1.415678 -1.105941 -0.242412 5.537261 0.298320 0.000000 0.000000 0.000000 0.000000 0.000000 0.000000 -3.442805 -1.547179 12.743255 0.058910 1.265257 -0.485486 -2.950258 31.442265 25.499210 0.000000 0.000000 0.000000 -4.754308 -1.970244 12.496341 2.802705 1.591158 -0.106392 43.329161 29.419761 -61.396803 0.000000 0.000000 0.000000
17.866618 71.354781 363.553962 1.996979 0.636906 -13.232944 -0.456291 0.011394 13.263373 0.085982 0.220805 0.068493 -1.090041 -1.860115 -0.019007 0.000000 0.000000 0.000000 0.970485 10.494405 -3.674127 4.852389 7.493056 -2.847380 8.742094 3.383573 -9.730805 2.383841 -8.762569 6.024120 0.000000 0.000000 0.000000 0.000000 0.000000 0.000000 5.721842 7.638943 2.912525 7.698066 19.645623 3.828876 -2.202054 3.562342 -0.402399 -0.297124 4.755543 -0.516786 0.000000 0.000000 0.000000 0.000000 0.000000 0.000000 -3.761651 -1.815693 13.266341 -0.054714 1.504776 -0.553808 -2.784279 31.580362 25.869323 0.000000 0.000000 0.000000 -5.143919 -2.270469 12.991259 3.050485 1.822424 -0.123044 44.667196 29.268065 -62.919433 0.000000 0.000000 0.000000
